<?xml version="1.0" encoding="UTF-8" standalone="no"?>
<svg
   xmlns:dc="http://purl.org/dc/elements/1.1/"
   xmlns:cc="http://creativecommons.org/ns#"
   xmlns:rdf="http://www.w3.org/1999/02/22-rdf-syntax-ns#"
   xmlns:svg="http://www.w3.org/2000/svg"
   xmlns="http://www.w3.org/2000/svg"
   xmlns:sodipodi="http://sodipodi.sourceforge.net/DTD/sodipodi-0.dtd"
   xmlns:inkscape="http://www.inkscape.org/namespaces/inkscape"
   height="60"
   viewBox="0 0 60 60"
   width="60"
   version="1.1"
   id="svg6"
   sodipodi:docname="eye_closed.svg"
   inkscape:version="1.0.1 (3bc2e813f5, 2020-09-07)">
  <metadata
     id="metadata12">
    <rdf:RDF>
      <cc:Work
         rdf:about="">
        <dc:format>image/svg+xml</dc:format>
        <dc:type
           rdf:resource="http://purl.org/dc/dcmitype/StillImage" />
        <dc:title></dc:title>
      </cc:Work>
    </rdf:RDF>
  </metadata>
  <defs
     id="defs10" />
  <sodipodi:namedview
     pagecolor="#b7b7b7"
     bordercolor="#666666"
     borderopacity="1"
     objecttolerance="10"
     gridtolerance="10"
     guidetolerance="10"
     inkscape:pageopacity="0"
     inkscape:pageshadow="2"
     inkscape:window-width="1920"
     inkscape:window-height="1057"
     id="namedview8"
     showgrid="false"
     inkscape:zoom="6.5554691"
     inkscape:cx="34.123132"
     inkscape:cy="39.813913"
     inkscape:window-x="1358"
     inkscape:window-y="-8"
     inkscape:window-maximized="1"
     inkscape:current-layer="svg6" />
  <path
     d="M 0,0 H 60 V 60 H 0 Z M 0,0 H 60 V 60 H 0 Z M 0,0 H 60 V 60 H 0 Z M 0,0 H 60 V 60 H 0 Z"
     fill="none"
     id="path2"
     style="stroke-width:2.5" />
  <path
     d="m 30,15 c 9.475,0 17.925,5.325 22.05,13.75 -1.475,3.05 -3.55,5.675 -6.025,7.8 l 3.525,3.525 C 53.025,37 55.775,33.15 57.5,28.75 53.175,17.775 42.5,10 30,10 c -3.175,0 -6.225,0.5 -9.1,1.425 l 4.125,4.125 C 26.65,15.225 28.3,15 30,15 Z m -2.675,2.85 5.175,5.175 c 1.425,0.625 2.575,1.775 3.2,3.2 l 5.175,5.175 c 0.2,-0.85 0.35,-1.75 0.35,-2.675 C 41.25,22.525 36.2,17.5 30,17.5 c -0.925,0 -1.8,0.125 -2.675,0.35 z m -22.3,-8.175 6.7,6.7 c -4.075,3.2 -7.3,7.45 -9.225,12.375 4.325,10.975 15,18.75 27.5,18.75 3.8,0 7.45,-0.725 10.8,-2.05 L 49.35,54 52.875,50.475 8.55,6.125 Z m 18.75,18.75 6.525,6.525 C 30.2,34.975 30.1,35 30,35 c -3.45,0 -6.25,-2.8 -6.25,-6.25 0,-0.125 0.025,-0.2 0.025,-0.325 z m -8.5,-8.5 4.375,4.375 c -0.575,1.375 -0.9,2.875 -0.9,4.45 0,6.2 5.05,11.25 11.25,11.25 1.575,0 3.075,-0.325 4.425,-0.9 l 2.45,2.45 c -2.2,0.6 -4.5,0.95 -6.875,0.95 -9.475,0 -17.925,-5.325 -22.05,-13.75 1.75,-3.575 4.3,-6.525 7.325,-8.825 z"
     id="path4"
     style="stroke-width:2.5;fill:#ffffff" />
</svg>
