<?xml version="1.0" encoding="UTF-8" standalone="no"?>
<svg
   xmlns:dc="http://purl.org/dc/elements/1.1/"
   xmlns:cc="http://creativecommons.org/ns#"
   xmlns:rdf="http://www.w3.org/1999/02/22-rdf-syntax-ns#"
   xmlns:svg="http://www.w3.org/2000/svg"
   xmlns="http://www.w3.org/2000/svg"
   xmlns:sodipodi="http://sodipodi.sourceforge.net/DTD/sodipodi-0.dtd"
   xmlns:inkscape="http://www.inkscape.org/namespaces/inkscape"
   height="60"
   viewBox="0 0 67.636948 60"
   width="67.636948"
   version="1.1"
   id="svg6"
   sodipodi:docname="restore.svg"
   inkscape:version="1.0.1 (3bc2e813f5, 2020-09-07)">
  <metadata
     id="metadata12">
    <rdf:RDF>
      <cc:Work
         rdf:about="">
        <dc:format>image/svg+xml</dc:format>
        <dc:type
           rdf:resource="http://purl.org/dc/dcmitype/StillImage" />
        <dc:title />
      </cc:Work>
    </rdf:RDF>
  </metadata>
  <defs
     id="defs10" />
  <sodipodi:namedview
     pagecolor="#3b3b3b"
     bordercolor="#666666"
     borderopacity="1"
     objecttolerance="10"
     gridtolerance="10"
     guidetolerance="10"
     inkscape:pageopacity="0"
     inkscape:pageshadow="2"
     inkscape:window-width="1920"
     inkscape:window-height="1057"
     id="namedview8"
     showgrid="false"
     inkscape:zoom="6.5554691"
     inkscape:cx="4.2151217"
     inkscape:cy="20.331365"
     inkscape:window-x="1358"
     inkscape:window-y="-8"
     inkscape:window-maximized="1"
     inkscape:current-layer="svg6"
     inkscape:document-rotation="0" />
  <path
     d="M 38.49764,0.01165888 C 21.534267,-0.45491714 7.6369641,13.142441 7.6369641,30.005829 h -5.965508 c -1.49970842,0 -2.2328986,1.79965 -1.16643975,2.832783 l 9.29819355,9.331519 c 0.6665411,0.666538 1.6996721,0.666538 2.3662091,0 l 9.298194,-9.331519 c 1.06646,-1.033133 0.299942,-2.832783 -1.16644,-2.832783 h -5.998834 c 0,-12.997473 10.597944,-23.4954329 23.662071,-23.3287987 12.397593,0.1666343 22.828902,10.5979407 22.995535,22.9955297 0.166634,13.030802 -10.331327,23.662069 -23.328803,23.662069 -5.365627,0 -10.331329,-1.832977 -14.263895,-4.932375 -1.333078,-1.033133 -3.199378,-0.933152 -4.399149,0.266615 -1.399727,1.433055 -1.299746,3.765935 0.266616,4.999028 C 24.300396,57.633793 30.699156,60 37.631142,60 54.461207,60 68.091894,46.102701 67.625318,29.139331 67.192083,13.509037 54.127952,0.44490804 38.497653,0.01165888 Z M 36.797971,16.675087 c -1.366401,0 -2.499515,1.133113 -2.499515,2.499515 v 12.264281 c 0,1.166441 0.63321,2.266227 1.633016,2.86611 l 10.39798,6.165469 c 1.199767,0.699864 2.732803,0.299942 3.432666,-0.866498 0.699865,-1.199767 0.299942,-2.732802 -0.866497,-3.432667 l -9.598134,-5.698892 v -11.33113 c 0,-1.333075 -1.099789,-2.466188 -2.499516,-2.466188 z"
     id="path4"
     style="fill:#ffffff;stroke-width:3.33269" />
</svg>
